<?xml version="1.0" encoding="UTF-8" standalone="no"?>
<svg viewBox="0 0 50 50"
 xmlns="http://www.w3.org/2000/svg" xmlns:xlink="http://www.w3.org/1999/xlink"  version="1.2" baseProfile="tiny">
<title>Qt SVG Document</title>
<desc>Generated with Qt</desc>
<defs>
</defs>
<g fill="none" stroke="black" stroke-width="1" fill-rule="evenodd" stroke-linecap="square" stroke-linejoin="bevel" >

<g fill="#050505" fill-opacity="1" stroke="none" transform="matrix(2.27273,0,0,2.27273,0,0)"
font-family="Noto Sans" font-size="10" font-weight="400" font-style="normal" 
opacity="0.00100002" >
<rect x="0" y="0" width="22" height="22"/>
</g>

<g fill="#2c3c53" fill-opacity="1" stroke="none" transform="matrix(2.27273,0,0,2.27273,0,0)"
font-family="Noto Sans" font-size="10" font-weight="400" font-style="normal" 
>
<path vector-effect="none" fill-rule="nonzero" d="M11,2 C6.02953,2 2,6.02944 2,11 C2,15.9706 6.02953,20 11,20 C15.9705,20 20,15.9706 20,11 C20,6.02944 15.9705,2 11,2 M11,3.125 C15.3492,3.125 18.875,6.65075 18.875,11 C18.875,15.3492 15.3492,18.875 11,18.875 C6.6508,18.875 3.125,15.3492 3.125,11 C3.125,6.65075 6.6508,3.125 11,3.125 M11,3.125"/>
</g>

<g fill="#bf616a" fill-opacity="1" stroke="none" transform="matrix(2.27273,0,0,2.27273,0,0)"
font-family="Noto Sans" font-size="10" font-weight="400" font-style="normal" 
>
<path vector-effect="none" fill-rule="evenodd" d="M3.125,10.9212 C3.125,6.6155 6.65076,3.125 11,3.125 C15.3492,3.125 18.875,6.6155 18.875,10.9212 L18.875,11.0787 C18.875,15.3845 15.3492,18.875 11,18.875 C6.65076,18.875 3.125,15.3845 3.125,11.0787 L3.125,10.9212"/>
</g>

<g fill="#ffffff" fill-opacity="1" stroke="none" transform="matrix(2.27273,0,0,2.27273,0,0)"
font-family="Noto Sans" font-size="10" font-weight="400" font-style="normal" 
>
<path vector-effect="none" fill-rule="nonzero" d="M14.7297,13.4243 L12.3051,10.9998 L14.7289,8.57585 C15.0894,8.21521 15.0894,7.63078 14.7289,7.27029 C14.3683,6.90995 13.7838,6.90995 13.4237,7.27029 L10.9997,9.69441 L8.57569,7.27029 C8.21537,6.90995 7.63095,6.9098 7.27034,7.27044 C6.90994,7.63085 6.90994,8.21536 7.2705,8.57584 L9.6945,10.9998 L7.2703,13.4243 C6.9099,13.7847 6.9099,14.3693 7.2703,14.7296 C7.45064,14.9098 7.68674,15 7.92304,15 C8.15934,15 8.39545,14.9099 8.57579,14.7296 L11,12.3051 L13.4244,14.7296 C13.6047,14.9098 13.8408,15 14.077,15 C14.3132,15 14.5496,14.9099 14.7296,14.7296 C15.0901,14.3693 15.0901,13.7847 14.7296,13.4243 L14.7297,13.4243"/>
</g>

<g fill="none" stroke="#000000" stroke-opacity="1" stroke-width="1" stroke-linecap="square" stroke-linejoin="bevel" transform="matrix(1,0,0,1,0,0)"
font-family="Noto Sans" font-size="10" font-weight="400" font-style="normal" 
>
</g>
</g>
</svg>
