<?xml version="1.0" encoding="UTF-8" standalone="no"?>
<svg viewBox="0 0 50 50"
 xmlns="http://www.w3.org/2000/svg" xmlns:xlink="http://www.w3.org/1999/xlink"  version="1.2" baseProfile="tiny">
<title>Qt SVG Document</title>
<desc>Generated with Qt</desc>
<defs>
</defs>
<g fill="none" stroke="black" stroke-width="1" fill-rule="evenodd" stroke-linecap="square" stroke-linejoin="bevel" >

<g fill="#050505" fill-opacity="1" stroke="none" transform="matrix(2.27273,0,0,2.27273,50,0)"
font-family="Noto Sans" font-size="10" font-weight="400" font-style="normal" 
opacity="0.00100002" >
<rect x="-22" y="0" width="22" height="22"/>
</g>

<g fill="#2c3c53" fill-opacity="1" stroke="none" transform="matrix(2.27273,0,0,2.27273,50,0)"
font-family="Noto Sans" font-size="10" font-weight="400" font-style="normal" 
>
<path vector-effect="none" fill-rule="nonzero" d="M-11,2 C-15.9705,2 -20,6.02944 -20,11 C-20,15.9706 -15.9705,20 -11,20 C-6.02952,20 -2,15.9706 -2,11 C-2,6.02944 -6.02952,2 -11,2 M-11,3.125 C-6.65081,3.125 -3.125,6.65075 -3.125,11 C-3.125,15.3492 -6.65081,18.875 -11,18.875 C-15.3492,18.875 -18.875,15.3492 -18.875,11 C-18.875,6.65075 -15.3492,3.125 -11,3.125 M-11,3.125"/>
</g>

<g fill="#bf616a" fill-opacity="1" stroke="none" transform="matrix(2.27273,0,0,2.27273,50,0)"
font-family="Noto Sans" font-size="10" font-weight="400" font-style="normal" 
opacity="0.7" >
<path vector-effect="none" fill-rule="evenodd" d="M-18.875,10.9212 C-18.875,6.6155 -15.3492,3.125 -11,3.125 C-6.65076,3.125 -3.12501,6.6155 -3.12501,10.9212 L-3.12501,11.0787 C-3.12501,15.3845 -6.65076,18.875 -11,18.875 C-15.3492,18.875 -18.875,15.3845 -18.875,11.0787 L-18.875,10.9212"/>
</g>

<g fill="#ffffff" fill-opacity="1" stroke="none" transform="matrix(2.27273,0,0,2.27273,50,0)"
font-family="Noto Sans" font-size="10" font-weight="400" font-style="normal" 
opacity="0.799873" >
<path vector-effect="none" fill-rule="nonzero" d="M-7.27032,13.4243 L-9.69492,10.9998 L-7.27109,8.57584 C-6.91056,8.2152 -6.91056,7.63078 -7.27109,7.27029 C-7.63169,6.90995 -8.21618,6.90995 -8.57628,7.27029 L-11.0003,9.69441 L-13.4243,7.27029 C-13.7846,6.90995 -14.3691,6.9098 -14.7297,7.27043 C-15.0901,7.63085 -15.0901,8.21535 -14.7295,8.57584 L-12.3055,10.9998 L-14.7297,13.4243 C-15.0901,13.7847 -15.0901,14.3693 -14.7297,14.7296 C-14.5494,14.9098 -14.3133,15 -14.077,15 C-13.8407,15 -13.6046,14.9099 -13.4242,14.7296 L-11,12.3051 L-8.57561,14.7296 C-8.39534,14.9098 -8.15917,15 -7.92301,15 C-7.68684,15 -7.45044,14.9099 -7.2704,14.7296 C-6.90987,14.3693 -6.90987,13.7847 -7.2704,13.4243 L-7.27032,13.4243"/>
</g>

<g fill="none" stroke="#000000" stroke-opacity="1" stroke-width="1" stroke-linecap="square" stroke-linejoin="bevel" transform="matrix(1,0,0,1,0,0)"
font-family="Noto Sans" font-size="10" font-weight="400" font-style="normal" 
>
</g>
</g>
</svg>
