<?xml version="1.0" encoding="UTF-8" standalone="no"?>
<svg viewBox="0 0 50 50"
 xmlns="http://www.w3.org/2000/svg" xmlns:xlink="http://www.w3.org/1999/xlink"  version="1.2" baseProfile="tiny">
<title>Qt SVG Document</title>
<desc>Generated with Qt</desc>
<defs>
<linearGradient gradientUnits="userSpaceOnUse" x1="17" y1="6" x2="5" y2="17" id="gradient1">
    <stop offset="0" stop-color="#737373" stop-opacity="1" />
    <stop offset="1" stop-color="#2ca05a" stop-opacity="0.301961" />
</linearGradient>
</defs>
<g fill="none" stroke="black" stroke-width="1" fill-rule="evenodd" stroke-linecap="square" stroke-linejoin="bevel" >

<g fill="#000000" fill-opacity="1" stroke="none" transform="matrix(2.27273,0,0,2.27273,100,-50)"
font-family="Noto Sans" font-size="10" font-weight="400" font-style="normal" 
opacity="0.00100002" >
<rect x="-44" y="22" width="22" height="22"/>
</g>

<g fill="#2c3c53" fill-opacity="1" stroke="none" transform="matrix(2.27273,0,0,2.27273,100,-50)"
font-family="Noto Sans" font-size="10" font-weight="400" font-style="normal" 
>
<path vector-effect="none" fill-rule="nonzero" d="M-33,24 C-37.9705,24 -42,28.0294 -42,33 C-42,37.9706 -37.9705,42 -33,42 C-28.0295,42 -24,37.9706 -24,33 C-24,28.0294 -28.0295,24 -33,24 M-33,25.125 C-28.6508,25.125 -25.125,28.6507 -25.125,33 C-25.125,37.3492 -28.6508,40.875 -33,40.875 C-37.3492,40.875 -40.875,37.3492 -40.875,33 C-40.875,28.6507 -37.3492,25.125 -33,25.125 M-33,25.125"/>
</g>

<g fill="url(#gradient1)" stroke="none" transform="matrix(2.27273,0,0,2.27273,100,-50)"
font-family="Noto Sans" font-size="10" font-weight="400" font-style="normal" 
>
<path vector-effect="none" fill-rule="evenodd" d="M-40.875,32.9212 C-40.875,28.6155 -37.3492,25.125 -33,25.125 C-28.6508,25.125 -25.125,28.6155 -25.125,32.9212 L-25.125,33.0787 C-25.125,37.3845 -28.6508,40.875 -33,40.875 C-37.3492,40.875 -40.875,37.3845 -40.875,33.0787 L-40.875,32.9212"/>
</g>

<g fill="none" stroke="#000000" stroke-opacity="1" stroke-width="1" stroke-linecap="square" stroke-linejoin="bevel" transform="matrix(1,0,0,1,0,0)"
font-family="Noto Sans" font-size="10" font-weight="400" font-style="normal" 
>
</g>
</g>
</svg>
