<?xml version="1.0" encoding="UTF-8" standalone="no"?>
<svg viewBox="0 0 50 50"
 xmlns="http://www.w3.org/2000/svg" xmlns:xlink="http://www.w3.org/1999/xlink"  version="1.2" baseProfile="tiny">
<title>Qt SVG Document</title>
<desc>Generated with Qt</desc>
<defs>
<linearGradient gradientUnits="userSpaceOnUse" x1="-39" y1="17" x2="-27" y2="4" id="gradient1">
    <stop offset="0" stop-color="#354864" stop-opacity="0.2" />
    <stop offset="1" stop-color="#3d5575" stop-opacity="1" />
</linearGradient>
</defs>
<g fill="none" stroke="black" stroke-width="1" fill-rule="evenodd" stroke-linecap="square" stroke-linejoin="bevel" >

<g fill="#000000" fill-opacity="1" stroke="none" transform="matrix(2.27273,0,0,2.27273,100,0)"
font-family="Noto Sans" font-size="10" font-weight="400" font-style="normal" 
opacity="0.00100002" >
<rect x="-44" y="0" width="22" height="22"/>
</g>

<g fill="#2c3c53" fill-opacity="1" stroke="none" transform="matrix(2.27273,0,0,2.27273,100,0)"
font-family="Noto Sans" font-size="10" font-weight="400" font-style="normal" 
>
<path vector-effect="none" fill-rule="nonzero" d="M-33,2 C-37.9705,2 -42,6.02944 -42,11 C-42,15.9706 -37.9705,20 -33,20 C-28.0295,20 -24,15.9706 -24,11 C-24,6.02944 -28.0295,2 -33,2 M-33,3.125 C-28.6508,3.125 -25.125,6.65075 -25.125,11 C-25.125,15.3492 -28.6508,18.875 -33,18.875 C-37.3492,18.875 -40.875,15.3492 -40.875,11 C-40.875,6.65075 -37.3492,3.125 -33,3.125 M-33,3.125"/>
</g>

<g fill="url(#gradient1)" stroke="none" transform="matrix(2.27273,0,0,2.27273,100,0)"
font-family="Noto Sans" font-size="10" font-weight="400" font-style="normal" 
>
<path vector-effect="none" fill-rule="evenodd" d="M-40.875,10.9212 C-40.875,6.6155 -37.3492,3.125 -33,3.125 C-28.6508,3.125 -25.125,6.6155 -25.125,10.9212 L-25.125,11.0787 C-25.125,15.3845 -28.6508,18.875 -33,18.875 C-37.3492,18.875 -40.875,15.3845 -40.875,11.0787 L-40.875,10.9212"/>
</g>

<g fill="none" stroke="#000000" stroke-opacity="1" stroke-width="1" stroke-linecap="square" stroke-linejoin="bevel" transform="matrix(1,0,0,1,0,0)"
font-family="Noto Sans" font-size="10" font-weight="400" font-style="normal" 
>
</g>
</g>
</svg>
